<?xml version="1.0" encoding="utf-8"?>
<!-- Generator: Adobe Illustrator 25.4.1, SVG Export Plug-In . SVG Version: 6.00 Build 0)  -->
<svg version="1.0" id="Layer_1" xmlns="http://www.w3.org/2000/svg" xmlns:xlink="http://www.w3.org/1999/xlink" x="0px" y="0px"
	 viewBox="0 0 916 605.1" style="enable-background:new 0 0 916 605.1;" xml:space="preserve">
<style type="text/css">
	.st0{fill:#004990;}
	.st1{fill:none;}
</style>
<path class="st0" d="M131.5,318.4h3.3c8.4-0.1,18.9-0.2,24,4.8c2.3,2.2,3.3,5.4,3.3,9.6c0,3.7-1,6.5-3.2,8.6
	c-5.4,5.4-16.9,5.4-25.3,5.4h-3.8v-28.4H131.5z M130.3,258.2c13.6,0,21,2,21,12.5c0,8.9-5.6,12.5-19.3,12.5h-2v-25.1H130.3
	L130.3,258.2z M87,222.3h-2.5v160.4h64.8c37.4,0,58.8-16.7,58.8-45.8c0-22.6-10.3-36.2-29-40.6c9.5-6.6,14.4-16.7,14.4-31.1
	c0-28.5-16.4-42.9-48.7-42.9L87,222.3z M305.3,222.3h-90.9v160.4h93.5v-39.2h-48v-21.8h45.5v-39.2h-45.6v-21h48v-39.2H305.3z
	 M490.1,376.1c30.6-8.7,52.1-35.3,52.4-73.5v-0.5c-0.4-38-21.8-64.6-52.4-73.3c34.9,7.1,61.6,32.6,61.8,73v0.8
	C551.8,343.4,525,369,490.1,376.1z M526.6,302.4c-0.3-33.1-18.4-54.7-45.8-61.2c30.6,4.6,54.4,25.8,54.4,61.2v0.1
	c0,35.4-23.9,56.5-54.5,61C508.1,356.9,526.3,335.4,526.6,302.4L526.6,302.4z M473.8,349.6c23-5.5,38-19.6,38.3-47.2
	c-0.4-27.6-15.3-41.7-38.3-47.2c25.7,3.8,46,17.4,46,47.1v0.2C519.8,332.1,499.5,345.8,473.8,349.6z M463.6,261.6
	c25,0.5,40.5,16,40.5,40.9c0,25.1-15.1,40.2-40.5,40.9L463.6,261.6L463.6,261.6z M478,222.3h-59.8v160.4H478
	c44.9,0,81.4-36,81.4-80.2S522.9,222.3,478,222.3z M359.4,222.3h-42.9v160.4h93.9v-39.2H362V222.3H359.4z M659.3,222.3h-90.9v160.4
	h93.4v-39.2h-48v-21.8h45.6v-39.2h-45.6v-21h48v-39.2L659.3,222.3z M828.9,222.3h-42.9v90.8c-7.3-9.4-70.7-90.8-70.7-90.8h-44.1
	v160.4h45.4v-91c23.5,30.3,47.1,60.7,70.7,91h44.1V222.3L828.9,222.3z"/>
<rect x="58" y="194.8" class="st1" width="800" height="215.5"/>
</svg>
