<?xml version="1.0" encoding="UTF-8" standalone="no"?>
<!-- Created with Inkscape (http://www.inkscape.org/) -->

<svg
   xmlns:dc="http://purl.org/dc/elements/1.1/"
   xmlns:cc="http://creativecommons.org/ns#"
   xmlns:rdf="http://www.w3.org/1999/02/22-rdf-syntax-ns#"
   xmlns:svg="http://www.w3.org/2000/svg"
   xmlns="http://www.w3.org/2000/svg"
   xmlns:sodipodi="http://sodipodi.sourceforge.net/DTD/sodipodi-0.dtd"
   xmlns:inkscape="http://www.inkscape.org/namespaces/inkscape"
   width="99.400002"
   height="39.599998"
   viewBox="0 0 26.299583 10.477499"
   version="1.1"
   id="svg8"
   inkscape:version="0.92.0 r15299"
   sodipodi:docname="hid.svg">
  <defs
     id="defs2" />
  <sodipodi:namedview
     id="base"
     pagecolor="#ffffff"
     bordercolor="#666666"
     borderopacity="1.0"
     inkscape:pageopacity="0.0"
     inkscape:pageshadow="2"
     inkscape:zoom="8.1504066"
     inkscape:cx="49.199999"
     inkscape:cy="19.3"
     inkscape:document-units="mm"
     inkscape:current-layer="layer1"
     showgrid="false"
     fit-margin-top="0"
     fit-margin-left="0"
     fit-margin-right="0"
     fit-margin-bottom="0"
     units="px"
     inkscape:window-width="1280"
     inkscape:window-height="744"
     inkscape:window-x="-4"
     inkscape:window-y="-4"
     inkscape:window-maximized="1" />
  <metadata
     id="metadata5">
    <rdf:RDF>
      <cc:Work
         rdf:about="">
        <dc:format>image/svg+xml</dc:format>
        <dc:type
           rdf:resource="http://purl.org/dc/dcmitype/StillImage" />
        <dc:title></dc:title>
      </cc:Work>
    </rdf:RDF>
  </metadata>
  <g
     inkscape:label="Layer 1"
     inkscape:groupmode="layer"
     id="layer1"
     transform="translate(-250.4367,-271.21825)">
    <g
       id="main-color"
       transform="matrix(0.26458333,0,0,0.26458333,250.51608,271.35054)">
<path
   inkscape:connector-curvature="0"
   d="m 95.6,2.1 c 0,-0.8 0.6,-1.4 1.4,-1.4 0.8,0 1.4,0.6 1.4,1.4 0,0.8 -0.6,1.4 -1.4,1.4 -0.8,0 -1.4,-0.6 -1.4,-1.4 z m 1.3,1.7 c 0.9,0 1.7,-0.7 1.7,-1.7 0,-1 -0.8,-1.7 -1.7,-1.7 -0.9,0 -1.7,0.7 -1.7,1.7 0,0.9 0.8,1.7 1.7,1.7 z M 96.6,2.2 h 0.3 L 97.4,3 h 0.3 L 97.1,2.1 c 0.3,0 0.5,-0.2 0.5,-0.5 C 97.6,1.2 97.4,1 96.9,1 h -0.7 v 2 h 0.3 V 2.2 Z m 0,-0.3 V 1.3 H 97 c 0.2,0 0.4,0 0.4,0.3 0,0.3 -0.2,0.3 -0.5,0.3 z"
   id="path10" />

<path
   style="fill:#00549b"
   inkscape:connector-curvature="0"
   d="M 89.6,0 H 4.5 C 2.1,0 0.2,1.9 0.2,4.3 v 30 c 0,2.4 1.9,4.3 4.3,4.3 h 85.1 c 2.4,0 4.3,-1.9 4.3,-4.3 V 4.3 C 94,1.9 92,0 89.6,0 Z M 36.4,29.2 h -10 v -8.5 h -6.7 v 8.5 H 9.7 V 9.4 h 10 v 8.5 h 6.7 V 9.4 h 10 z m 15.4,0 h -10 V 9.4 h 10 z m 21.4,0.1 H 56.9 V 9.4 h 16.3 c 5.7,0 10.9,4.3 10.9,10 0,5.6 -5.2,9.9 -10.9,9.9 z"
   id="path12" />

<path
   style="fill:#00549b"
   inkscape:connector-curvature="0"
   d="m 66.7,11.2 v 16.3 c 4.1,0 6.5,0.7 6.5,-8.1 0,-8.9 -2.8,-8.2 -6.5,-8.2 z"
   id="path14" />

</g>
    <image
       src="https://www.hidglobal.com/svg-embed/en/20823/fallback.png"
       id="image23"
       x="250.38377"
       y="271.48282"
       width="0"
       height="0" />
  </g>
</svg>
