<svg xml:space="preserve" style="enable-background:new 0 0 80 26;" viewBox="0 0 80 26" y="0px" x="0px" xmlns:xlink="http://www.w3.org/1999/xlink" xmlns="http://www.w3.org/2000/svg" id="图层_1" version="1.1">
<style type="text/css">
	.st0{fill:#FFFFFF;}
</style>
<g>
	<path d="M71.2,7.7v7.6L67,7.7h-2.8v10.6h2.1v-7.7l4.3,7.7h2.7V7.7H71.2z" class="st0"></path>
	<path d="M40.2,10.8c0-1.7-1.4-3.1-3.1-3.1h-5.8v10.6h2.2V9.5h3.3c0.7,0,1.3,0.6,1.3,1.3c0,0.7-0.6,1.3-1.3,1.3h-2.4
		l3.6,6.2h2.4l-2.6-4.4C39.2,13.6,40.2,12.3,40.2,10.8L40.2,10.8z" class="st0"></path>
	<path d="M13.7,13.7c0,1.3-1.1,2.4-2.4,2.4c-1.3,0-2.4-1.1-2.4-2.4v-6H6.7v6.2c0,2.6,2.1,4.6,4.7,4.6
		c2.6,0,4.7-2.1,4.7-4.6V7.7h-2.2V13.7z" class="st0"></path>
	<path d="M23.6,12.1V14h3c-0.1,0.6-0.4,1.2-0.9,1.6c-0.6,0.5-1.5,0.8-2.4,0.8c-1.7-0.1-3-1.5-3.1-3.2
		c0-1.9,1.5-3.4,3.3-3.4c0.8,0,1.6,0.3,2.2,0.8h2.8C28,9.3,27,8.4,25.7,7.9c-2.6-1-5.6,0.1-7,2.5c-0.1,0.2-0.2,0.4-0.3,0.6
		c-1.1,2.8,0.2,6.1,3.1,7.2c2.5,1,5.3,0,6.7-2.1c0,0,0,0,0-0.1c0.5-0.8,0.7-1.7,0.7-2.7c0-0.4,0-0.8-0.1-1.2L23.6,12.1L23.6,12.1z" class="st0"></path>
	<path d="M42.4,18.3H51v-1.9h-6.4V14h5.4v-1.9h-5.4V9.7H51V7.8h-8.5V18.3z" class="st0"></path>
	<path d="M53.3,18.3h8.5v-1.9h-6.4V14h5.4v-1.9h-5.4V9.7h6.4V7.8h-8.5V18.3z" class="st0"></path>
</g>
</svg>
