<svg version="1.2" xmlns="http://www.w3.org/2000/svg" viewBox="0 0 1606 519" width="1606" height="519">
	<title>Zebra_Technologies_logo-svg</title>
	<style>
		.s0 { fill: #000000 } 
	</style>
	<g id="layer1">
		<g id="g1688">
			<path id="path1017" class="s0" d="m344.8 333.7h-36.5v-103.2l36.5 36.5z"/>
			<path id="path1029" class="s0" d="m198.8 327.4l36.5 36.5v51.5l-73-72.9v-206.7l-94.5-94.1q7.5-6.2 15.7-11.5 7.5-4.9 15.4-9l99.9 99.6v-120.1c33.2 0 60.1 26.9 60.1 60.1 0 31.2-23.9 56.9-54.5 59.8h46.8l0.2 0.1 36.3 36.4h-88.9z"/>
			<path id="path1033" class="s0" d="m271.8 194l-0.2 139.5h-36.5l0.2-176.2z"/>
			<path id="path1037" class="s0" d="m308.3 230.5l-36.5-36.5h52.3l36.5 36.5z"/>
			<path id="path1049" class="s0" d="m0.7 181c0.2-15.7 2.3-30.9 6.2-45.4l82.4 82.4v-0.1-51.5l-67.9-67.9c5.8-11.1 12.7-21.5 20.6-31l83.8 83.8v154.7 2.2c-4.1-4.3-125.1-127.2-125.1-127.2z"/>
			<path id="path1053" class="s0" d="m235.3 467v51.6l-234-233.8v-51.6z"/>
			<path id="path1065" class="s0" d="m465.1 333.7c0 33.2-27 60.1-60.2 60.1-33.2 0-60.1-26.9-60.1-60.1h36.5v-46.1h36.5z"/>
			<path id="path1069" class="s0" d="m715.1 334.5l-27.4 52h-170.5l110.9-212.9h-98.2l27.4-52h170.6l-111 212.9z"/>
			<path id="path1073" class="s0" d="m814.2 227.6h87.4v52.1h-87.4v54.8h87.4v52.1h-151.8v-265h151.8v52h-87.4z"/>
			<path id="path1085" fill-rule="evenodd" class="s0" d="m1023.8 121.6c33.8 0 53.3 3.5 67.6 12.7 18.3 11.1 29.4 33.7 29.4 59.2 0 18.6-5.9 34.1-17.8 46.1-7.6 7.9-13.6 11.5-27.9 15.5 16.3 3.5 23.5 7.1 31.8 15.1 12 11.1 17.9 26.6 17.9 46 0 24.7-9.9 46.5-27 58-13.1 8.8-29 12.4-56.1 12.4h-108.5v-265zm-26.2 109.6h15.9c29.4 0 41.7-9.1 41.7-31 0-21.4-12.3-30.6-42.5-30.6h-15.1zm0 109.3h23.4c27.1 0 38.6-9.1 38.6-30.6 0-12.7-4.8-21.9-14.3-27-7.2-4-13.5-4.8-33-4.8h-14.7z"/>
			<path id="path1089" fill-rule="evenodd" class="s0" d="m1214.2 386.6h-64.4v-265h85.9c35 0 60.4 6.3 77.9 19.8 18.3 14.3 28.6 38.2 28.6 67.2 0 40.5-17.1 67.1-51.3 80.6l58.5 97.4h-77.1l-58.1-102.5zm20.7-138.7c26.2 0 42.1-13.5 42.1-36.5 0-21.9-15.5-37-38.1-37h-24.7v73.5z"/>
			<path id="path1093" fill-rule="evenodd" class="s0" d="m1519.6 334.4h-85.9l-16.4 52.2h-67.9l87.4-265h81.9l87.1 265h-69.9zm-16.3-52.2l-26.6-84.8-26.7 84.8z"/>
		</g>
	</g>
</svg>